PathFileType	4	(X/Y/Z)	72_2_26_p1_0-764_filt_butterworth.trc
DataRate	CameraRate	NumFrames	NumMarkers	Units	OrigDataRate	OrigDataStartFrame	OrigNumFrames
54.0	54.0	6	27	m	54.0	191	764
Frame#	Time	RHip			RKnee			RAnkle			RBigToe			RSmallToe			RHeel			LHip			LKnee			LAnkle			LBigToe			LSmallToe			LHeel			Neck			Head			Nose			RShoulder			RElbow			RWrist			RThumb			RIndex			RPinky			LShoulder			LElbow			LWrist			LThumb			LIndex			LPinky			
		X1	Y1	Z1	X2	Y2	Z2	X3	Y3	Z3	X4	Y4	Z4	X5	Y5	Z5	X6	Y6	Z6	X7	Y7	Z7	X8	Y8	Z8	X9	Y9	Z9	X10	Y10	Z10	X11	Y11	Z11	X12	Y12	Z12	X13	Y13	Z13	X14	Y14	Z14	X15	Y15	Z15	X16	Y16	Z16	X17	Y17	Z17	X18	Y18	Z18	X19	Y19	Z19	X20	Y20	Z20	X21	Y21	Z21	X22	Y22	Z22	X23	Y23	Z23	X24	Y24	Z24	X25	Y25	Z25	X26	Y26	Z26	X27	Y27	Z27	
191	3.537037037037037	0.21921867928980684	0.5633551370822338	0.5728408526798157	0.23471195911033246	0.605424379312322	1.0353211281851529	0.23332124534324328	0.6613523284975859	1.4586810297750086	0.16591650663900237	0.4635201855004436	1.4803654029013613	0.23977017130611872	0.4480953369222705	1.4541317547401351	0.20964237120313617	0.74791873872031	1.5480212276574532	-0.017073038680153217	0.595909880755529	0.5895909886800473	-0.013001014057483726	0.6380438602026896	1.0350910962312216	-0.02216326374607459	0.6591247978801369	1.4339702539422956	-0.01142673921245668	0.44594902239665823	1.4338547917277715	-0.07508432611212737	0.5078749682771959	1.4558320339732802	-0.012031805794817163	0.7471278983907428	1.5122413446541616	0.05629316572233424	0.544329527605829	-0.018255483977756937	0.05162930856935185	0.5195045123998387	-0.2747425414423177	0.11351594739850528	0.427729451629929	-0.14941105858635068	0.23690498601741797	0.5378751914509036	0.021798792713198453	0.4772992446016907	0.5287191571722203	0.07959399319350069	0.6314787913105395	0.40416189549898796	-0.010285337455440049	0.708491185428897	0.2880832906883288	-0.0436448844129812	0.7245969467539215	0.2863819417314243	-0.06313775955814992	0.7252080926981732	0.3588778440270707	-0.010047837487131308	-0.10695527729104083	0.6065725707274665	0.09232536107271155	-0.208870147090878	0.6332121222985931	0.3560785364905961	-0.14358986299568907	0.4639342786413444	0.5236958734774633	-0.06889834742459093	0.40468320185704143	0.5976437550968794	-0.10185842668342365	0.35898694512388496	0.6080577079571364	-0.13317878527172486	0.4218980747332519	0.6473483250052038
192	3.555555555555556	0.21903186343235573	0.5630891808985057	0.5729766772706077	0.23448101979305888	0.6052947129625791	1.0354211725469897	0.23211342901123833	0.660712102413772	1.4599543464815632	0.16518962255356662	0.4618020648188317	1.4757647037776873	0.2391837459799377	0.44695965630500467	1.4533434463721182	0.20979508051565668	0.7472782987565281	1.5489185683758602	-0.017215139509664166	0.5946203021954714	0.5867759917421054	-0.01304187179104099	0.6385211257374248	1.0348312875334744	-0.022249823897473597	0.6592385755663465	1.4343711504815542	-0.011976931138475151	0.4463821695237287	1.433116166021509	-0.07546050041817066	0.5092943302428633	1.4565483331612024	-0.01291856463036535	0.7486312855070337	1.5123011963889423	0.05501061296467316	0.5409848175756392	-0.01900635445747299	0.04888719020840765	0.5188840765840739	-0.27457030749948086	0.11279346897843823	0.4284619329543655	-0.1490799788329847	0.23695662476371576	0.5380692693254367	0.02065056607680061	0.4771306827163894	0.5295642830698422	0.06835753614458497	0.6266169354599642	0.40257999903492103	-0.014359121117869881	0.6913149256570942	0.2822143448821133	-0.048491779683515285	0.7094927908423342	0.27899328619128294	-0.0673236065895035	0.7180400010398684	0.3572477161427174	-0.0109284731993038	-0.10695682048491545	0.6065415486883233	0.0926562530444486	-0.20843930055671786	0.6319121451646208	0.36044783602712627	-0.13527094013764995	0.448694493786859	0.5223156617263343	-0.055558503128821865	0.3980623772148246	0.5979553162398568	-0.09426699054798403	0.341740083010475	0.6066645327936095	-0.12828326759832442	0.4189235533125983	0.6496362735296073
193	3.574074074074074	0.21872903945049504	0.5627420939639207	0.5731582876492142	0.23410400668931475	0.6053296056488615	1.0349645308791515	0.23174679398615136	0.6603088913294912	1.4609343930472505	0.16268648727679658	0.45620891136003444	1.46997519867324	0.23747156349056334	0.4433897063295684	1.4511809549236143	0.2098235089916957	0.7468602326189391	1.549626451953588	-0.016753063545883816	0.5913598562192528	0.5849087973911163	-0.01308102959669272	0.6390430420279831	1.0338155088429848	-0.02225907850080138	0.6593493767505002	1.4343017474325352	-0.014215630489975845	0.4455425444145439	1.430931935877709	-0.07552179850332	0.5091524102391686	1.456448428651762	-0.014224218668591497	0.7534974455911501	1.5130400391920569	0.05451616562446348	0.5396946992164873	-0.019874107862723898	0.047291529609816696	0.5186240811995754	-0.27437806722407504	0.11190086830580112	0.4290153454256034	-0.14889727622934307	0.23696167289923256	0.5381108307950601	0.01910551771647233	0.4755494760703569	0.531091114727308	0.05500687606770669	0.622187980776771	0.3990229788171791	-0.02076965095188191	0.6769162746070283	0.2797872315686823	-0.05601779921193081	0.6927343102105447	0.2700687637308938	-0.074120135685548	0.7088139226749011	0.35344773600629775	-0.015576172749596547	-0.10698009578839568	0.6063395540500773	0.0925202275113797	-0.2081061120771467	0.6306331010168753	0.3638147486073651	-0.12921888741696305	0.43803856014295006	0.5207843074294143	-0.045873653790736255	0.40083474196099517	0.6000372491197136	-0.08821472204622553	0.33885421729128296	0.6078037065575597	-0.12488470502792125	0.4177355620672386	0.6514365416447221
194	3.592592592592593	0.21836314087067063	0.5640971637398445	0.5732675693422354	0.23417387881476184	0.6055107289057821	1.0338747352382838	0.23183031176500057	0.6602155251997108	1.4613420998012807	0.15917489025259268	0.44994214473629923	1.465646001636895	0.2351396128013426	0.43845598055881385	1.4483019043918735	0.20992137583941223	0.7469529003442219	1.5505986281742972	-0.015916904778242306	0.5881361223508557	0.5853093535329921	-0.013088634352117384	0.6393979035456768	1.0324020944816463	-0.022239453419864826	0.6594667962392075	1.4341739265871039	-0.016632948314595643	0.4422836588883188	1.4280681632801886	-0.07550273592253787	0.5086499980508348	1.4563090485353718	-0.015609825007001765	0.7603422757934257	1.5158348389548366	0.05446645443063765	0.5396331037262366	-0.020360018292109833	0.04663637568570798	0.5195314000954742	-0.27421257039455377	0.11048940479379928	0.4290434053982966	-0.14895763913021504	0.23685018252722023	0.5378738183564542	0.01726288746969707	0.47373707560298095	0.5322852216941965	0.04231164090229231	0.617264101531079	0.393959294457247	-0.03225313034919981	0.666118294926918	0.2814456322028204	-0.06679910067995734	0.6782348158594675	0.26787265623428114	-0.0826731542324175	0.6971145628310027	0.3451549163683662	-0.027672083979351024	-0.10701244345042872	0.6061137415421392	0.09234491410579335	-0.2072268978343228	0.6269657692794601	0.36545687712971575	-0.12568594101789302	0.4340081390772703	0.5200430661721646	-0.03986099457269618	0.4055104432363421	0.601765211170393	-0.08187403562910597	0.3435146945902458	0.6098667818107188	-0.12255405080308618	0.4170660278754245	0.6523268209941973
195	3.611111111111111	0.21824211008773844	0.5694070132808996	0.5741290524006237	0.23452628758602695	0.6057289234838508	1.0325124233015799	0.23194850519544175	0.6602480294193662	1.4614209822497835	0.15674131034153127	0.4475817288220257	1.4645021610881146	0.233449487477881	0.4348340838190984	1.4462520483037067	0.210356552396196	0.7474212270416242	1.5526209923131162	-0.015347650694841803	0.5882403787373184	0.5872158754040444	-0.013074244035704724	0.6395221100664437	1.0313753031683457	-0.02222541187007399	0.659553044907117	1.4341206692198305	-0.017585754889540225	0.43775285678417275	1.4261318821318234	-0.07518789028899837	0.5082488486836921	1.4563390169010177	-0.016581164811415007	0.7653743364155248	1.518597827276266	0.05447112480225834	0.5398078771560364	-0.020472270416742808	0.04601823279723657	0.5228250339198859	-0.27408131440821176	0.10833587114291443	0.4285184634220569	-0.14915589443656044	0.23666263239115276	0.5374455270275693	0.015579085658465006	0.47281460092772715	0.532668098577946	0.032599620458060495	0.6103959828064287	0.38690541015255075	-0.048838937424461014	0.6586096206247868	0.2831990839792778	-0.0792972427633756	0.6673586167734558	0.2695352690543058	-0.0926027751959101	0.6841818334565478	0.3326039556158878	-0.04748393100347006	-0.1070236635341108	0.6060319950020248	0.09229948870524866	-0.20560463288982633	0.6219692256947813	0.3662177727138166	-0.12372292344371688	0.43404268491140036	0.5203120407658898	-0.0358102237132526	0.40763565663551543	0.602476317565689	-0.07350834062316802	0.3495452274410143	0.6125041052813449	-0.1212434798117201	0.41633514413383627	0.6519256241423247
196	3.6296296296296298	0.21899913117310915	0.578370899031277	0.5765776388867874	0.23480766335733985	0.6058666548393453	1.0315402076298394	0.23198656553427865	0.660256585986744	1.4614531054385913	0.1568425607909703	0.44886734690803676	1.4659049949332104	0.23291978506857985	0.4336008857607476	1.4456336748427816	0.21099982002684609	0.7479980713434955	1.5552898447043653	-0.014844318021092429	0.5934541441405936	0.5900181538813278	-0.013072751554683168	0.6395152414168205	1.031069130698691	-0.022231428127400796	0.6595852767206924	1.4341568564469844	-0.017218445785114618	0.4345337915333951	1.4256425107534951	-0.07426134709359052	0.5079977398512892	1.456212047631332	-0.01697331700519273	0.766982021021771	1.5198504648236157	0.054407589603430034	0.5398657066109951	-0.020477591649182007	0.04519789408335704	0.5276988051025484	-0.2739774806799933	0.10578162337242358	0.42792011951074727	-0.1492963330673659	0.23652935001906453	0.5370160316722355	0.014291847813967612	0.472707575288046	0.5339709364376551	0.026526279164977684	0.6019358257499738	0.37787371844691076	-0.06629097866047498	0.6534782012107939	0.2811136146493516	-0.09313541105102706	0.6590996576412831	0.2688083732422275	-0.10586592834941375	0.6730202697495289	0.31976920510975243	-0.0698743498159814	-0.10700642369784794	0.6061245377270971	0.09237864378790325	-0.20356284218231102	0.6187395201804956	0.36700902656436707	-0.12208757896033312	0.43381094625007866	0.5206418268967761	-0.032553744368388496	0.40754691818099764	0.602514862423872	-0.06296559209571437	0.35686941559498664	0.615616196746712	-0.1194267192638821	0.41077860199417493	0.6488241352662631
